<svg width="1em" height="1em" fill="none" viewBox="0 0 90 90">
  <path fill="white"
    d="M45 13.125q-8.671 0-15.996 4.277-7.324 4.279-11.602 11.602Q13.125 36.329 13.125 45t4.277 15.996q4.279 7.324 11.602 11.602Q36.329 76.875 45 76.875t15.996-4.277q7.324-4.279 11.602-11.602Q76.875 53.672 76.875 45q0-8.671-4.277-15.996-4.279-7.324-11.602-11.602Q53.672 13.125 45 13.125M90 45q0 12.246-6.035 22.588-6.036 10.341-16.377 16.377Q57.246 90 45 90t-22.588-6.035T6.035 67.588 0 45t6.035-22.588T22.412 6.035 45 0t22.588 6.035q10.341 6.036 16.377 16.377Q90 32.754 90 45">
  </path>
</svg>